<svg xmlns:xlink="http://www.w3.org/1999/xlink" xmlns="http://www.w3.org/2000/svg" viewBox="0 0 78 25" fill="none" class="mol-originals__logo_er4PD91a" width="78"  height="25" ><path d="M52.818 19.219v-7.4s-.027-.348.207-.407l1.062-.841s.176-.29-.175-.669c-.326-.406-6.78-3.54-6.78-3.54s-.235-.349-.828.058c0 0-7.045 2.787-9.816 6.354 0 0-2.21 1.394-1.815 6.877-.013-.058.456 4.383 6.236 5.11l3.831-3.047s.208-.35.502-.061l6.484 3.106 3.95-3.048s.175-.35-.12-.698l-2.741-1.8.003.006Zm-7.223 1.335s-.442.727-1.534.234c0 0-2.774-1.354-3.847-3.486.027.061-1.16-2.038-.545-4.324 0 0 .087-2.118 2.594-3.19l3.389 2.176-.06 8.59h.003ZM77.78 21.658c-.326-.143-1.828-1.189-1.828-1.189s-.294.143-.442-.494c-.146-.64.03-19.01.03-19.01s.03-.406-.796-.202c-.857.202-7.309 2.264-7.309 2.264s-.264.03-.059.38c0 0 .944.29 1.237 1.072.294.783.12 15.905.12 15.905l-1.063 1.017s-.383.26.207.637c.472.318 6.425 2.9 6.425 2.9l3.653-2.786s.178-.348-.175-.494ZM66.608 21.539s-1.712-.988-2.033-1.131c-.297-.146-.178-.435-.178-.435s-.235-7.46-.06-8.099c.149-.581.356-.406.356-.406s.529-.146 1.003-.435c.443-.29.027-.523.027-.523s-5.513-2.846-5.925-3.193c-.383-.348-.707 0-.707 0s-3.83 2.293-4.127 2.758c-.294.435-.06.637-.06.637s1.653 1.016 2.095 1.16c.472.146.294.406.294.406l.119 7.546c.059.204 0 .725 0 .725s-.65.493-1.003.785c-.413.348-.087.696-.087.696l5.926 2.96s4.01-2.846 4.362-3.019c.354-.143 0-.435 0-.435l-.002.003ZM60.887 6.74c2.359-.958 3.302-3.163 3.302-3.163.588-2.148-.798-2.729-.798-2.729C62.154.094 61.24.702 61.24.702c-1.416.754-1.798 2.206-1.798 2.206-.356 1.916.706 3.424.706 3.424.208.494.736.406.736.406l.003.003ZM33.886 21.34s-1.593-.728-1.8-2.583V3.72s.207-.088-.265-.377L26.191.094s-.147-.29-.676.146L20.711 3.2 15.934.588S15.726.384 15.49.53C15.106.76 9.45 3.72 9.45 3.72L5.263 1.31s-.208-.29-.442-.088L.224 4.126s-.65.234.264.725l.148.058L3.82 7.173v13.293l-1.652.93s-.529.257-.027.578l5.807 3.018 4.451-2.466s.386-.23.06-.578l-1.068-.667-.011-5.924h3.173v4.616l-1.445.9s-.472.23.148.64l6.662 3.482 4.484-2.756s.469-.058.175-.406l-2.162-1.441-.02-5.285 3.096-4.39h-3.109l-.021-6.384 2.893 1.452s.353.117.442.61v14.369s.353 2.989 4.095 4.236l4.335-3.047s.208-.263-.234-.61l-.006-.003Zm-23.582-.728s-.267-.058-.267-.143L10.1 4.97s.046-.541.86-.557l.027 16.627-.684-.425.002-.003Zm4.244-9.895h-.56l-2.613 3.817-.017-10.028 2.777 1.422s.327.234.413.465v4.324Zm7.406-6.564.024 6.567h-.709v-.465l-.06-5.834s-.134-.536.745-.268Zm-.302 15.735s-.356-.144-.383-.26v-4.269h.723l.016 4.765-.356-.239v.003Z" style="" fill="#004DB3"></path></svg>