<?xml version="1.0" encoding="UTF-8"?>
<!-- Generator: Adobe Illustrator 26.1.0, SVG Export Plug-In . SVG Version: 6.00 Build 0)  -->
<svg xmlns="http://www.w3.org/2000/svg" xmlns:xlink="http://www.w3.org/1999/xlink" version="1.1" id="Layer_1" x="0px" y="0px" viewBox="0 0 400 160" style="enable-background:new 0 0 400 160;" xml:space="preserve">
<style type="text/css">
	.st0{clip-path:url(#SVGID_00000112615026451499950230000007455231698879808949_);fill:#B2B2B2;}
	.st1{fill:#FFFFFF;}
	.st2{opacity:0.75;}
</style>
<g>
	<g>
		<defs>
			<path id="SVGID_1_" d="M81.2,159.6c44.8,0,81.2-35.6,81.2-79.6S126.1,0.4,81.2,0.4C36.4,0.4,0,36.1,0,80S36.4,159.6,81.2,159.6"></path>
		</defs>
		<clipPath id="SVGID_00000011715325747331550820000000654097532469869461_">
			<use xlink:href="#SVGID_1_" style="overflow:visible;"></use>
		</clipPath>
		
			<rect y="0.4" style="clip-path:url(#SVGID_00000011715325747331550820000000654097532469869461_);fill:#B2B2B2;" width="162.4" height="159.1"></rect>
	</g>
	<g>
		<path class="st1" d="M140.8,52.7V24.6h-10.2v-8.2h29.6v8.2h-10.1v28.1H140.8z"></path>
		<path class="st1" d="M189.1,52.7V38.1h-15.1v14.6h-9.3V16.5h9.3V30h15.1V16.5h9.3v36.3H189.1z"></path>
		<path class="st1" d="M205,52.7V16.5h26.6v7.9h-17.2v6h16.8v7.9h-16.8v6.5h17.2v7.9H205z"></path>
		<path class="st1" d="M150.5,61.9c7.9,0,12.8,3.9,15.5,8.4l-7.8,4.1c-1.5-2.4-4.2-4.3-7.7-4.3c-5.9,0-10.1,4.6-10.1,10.5    s4.2,10.5,10.1,10.5c2.8,0,5.4-1,6.8-2.2v-3H149v-7.8h17.5v14.2c-3.9,4.3-9.2,7.1-16,7.1c-10.8,0-19.6-7.2-19.6-18.8    C130.9,69.1,139.7,61.9,150.5,61.9z"></path>
		<path class="st1" d="M192.2,98.7l-6.1-12.3h-4.8v12.3H172V62.5h18.2c8,0,12.6,5.3,12.6,12.1c0,6.3-3.9,9.7-7.2,10.9l7.4,13.3    H192.2z M188.7,70.3h-7.4v8.2h7.4c2.4,0,4.5-1.6,4.5-4.1C193.3,71.9,191.2,70.3,188.7,70.3z"></path>
		<path class="st1" d="M207.9,98.7V62.5h9.3v36.3H207.9z"></path>
		<path class="st1" d="M223.8,98.7V62.5h26.6v7.9h-17.2v6H250v7.9h-16.8v6.5h17.2v7.9H223.8z"></path>
		<path class="st1" d="M276,98.7l-6.1-12.3h-4.8v12.3h-9.3V62.5H274c8,0,12.6,5.3,12.6,12.1c0,6.3-3.9,9.7-7.2,10.9l7.4,13.3H276z     M272.6,70.3h-7.4v8.2h7.4c2.4,0,4.5-1.6,4.5-4.1C277.1,71.9,275,70.3,272.6,70.3z"></path>
		<path class="st1" d="M294.1,86.6c2.6,2.6,6.6,4.8,11.6,4.8c3.2,0,5.2-1.4,5.2-3.1c0-2.1-2.3-2.9-6.2-3.7    c-6-1.2-14.3-2.7-14.3-11.3c0-6.1,5.2-11.4,14.5-11.4c5.8,0,10.9,1.7,14.7,5.1l-5.1,6.7c-3-2.5-7-3.7-10.2-3.7    c-3.1,0-4.3,1.2-4.3,2.8c0,1.9,2.2,2.6,6.3,3.3c6,1.3,14.2,3,14.2,11.2c0,7.3-5.4,12.1-15.1,12.1c-7.3,0-12.4-2.3-16.1-5.8    L294.1,86.6z"></path>
		<path class="st1" d="M342.2,61.9c11.1,0,19.3,7.7,19.3,18.8s-8.3,18.8-19.3,18.8c-11.1,0-19.4-7.7-19.4-18.8    S331.1,61.9,342.2,61.9z M342.2,70.1c-6,0-9.9,4.6-9.9,10.5c0,5.9,3.9,10.5,9.9,10.5c6,0,9.8-4.6,9.8-10.5    C352.1,74.7,348.2,70.1,342.2,70.1z"></path>
		<path class="st1" d="M391,98.7l-15.3-21.9v21.9h-9.3V62.5h9.6l14.7,20.9V62.5h9.4v36.3H391z"></path>
		<path class="st1" d="M140.8,144.7v-28.1h-10.2v-8.2h29.6v8.2h-10.1v28.1H140.8z"></path>
		<path class="st1" d="M184.9,144.7l-6.1-12.3h-4.8v12.3h-9.3v-36.3h18.2c8,0,12.6,5.3,12.6,12.1c0,6.3-3.9,9.7-7.2,10.9l7.4,13.3    H184.9z M181.5,116.3h-7.4v8.2h7.4c2.4,0,4.5-1.6,4.5-4.1C186,117.9,183.9,116.3,181.5,116.3z"></path>
		<path class="st1" d="M200.6,108.4h9.5v21.3c0,4.3,2.3,7.4,7.3,7.4c5,0,7.3-3.1,7.3-7.4v-21.3h9.5V130c0,9-5.2,15.4-16.8,15.4    c-11.6,0-16.8-6.4-16.8-15.3V108.4z"></path>
		<path class="st1" d="M243.1,132.6c2.6,2.6,6.6,4.8,11.6,4.8c3.2,0,5.2-1.4,5.2-3.1c0-2.1-2.3-2.9-6.2-3.7    c-6-1.2-14.3-2.7-14.3-11.3c0-6.1,5.2-11.4,14.5-11.4c5.8,0,10.9,1.7,14.7,5.1l-5.1,6.7c-3-2.5-7-3.7-10.2-3.7    c-3.1,0-4.3,1.2-4.3,2.8c0,1.9,2.2,2.6,6.3,3.3c6,1.2,14.2,3,14.2,11.2c0,7.3-5.4,12.1-15.1,12.1c-7.3,0-12.4-2.3-16.1-5.8    L243.1,132.6z"></path>
		<path class="st1" d="M281.6,144.7v-28.1h-10.2v-8.2h29.6v8.2H291v28.1H281.6z"></path>
	</g>
	<g class="st2">
		<path class="st1" d="M88.8,98.7c0.6-0.7,0.7-1.3,0.7-1.7c0.1,0,0.3-0.1,0.6-0.2c1.2-0.3,2.2-0.5,3.2-0.7c1.5-0.3,2.9-0.5,4.8-1.2    c1.8-0.6,7.5-2.3,9.1-2.6c0.4-0.1,1.4-0.2,2.4-0.2c2-0.1,3.4-0.3,4.1-0.5c0.6-0.2,1-0.3,1.5-0.3c1.4-0.2,2.7-0.5,3.9-2.7    c1.1-2,1.7-5.2-1.6-8.9c-0.8-0.9-0.9-1.6-0.6-3c0-0.2,0.2-0.4,0.3-0.6c0.3-0.6,0.8-1.5,0.3-2.8c-0.1-0.2-0.2-0.4-0.4-0.6    c0.3-0.2,0.6-0.6,0.7-0.9c0.4-0.9,0.4-1.9-0.1-2.8c-0.4-0.7-0.9-1.4-1.3-2c0,0,0-0.1-0.1-0.1h0.1c0.6,0,1.2-0.1,1.7-0.3    c1.3-0.5,2.2-1.4,2.6-2.7c0.4-1.4,0.1-2.9-0.7-4.1c-0.6-0.7-1.2-1.5-1.8-2.2c-0.7-0.8-1.4-1.7-2-2.5c-0.4-0.6-1.2-1.4-2.4-2.6    c-0.4-0.4-0.9-0.6-1.3-0.8c-0.2-0.1-0.4-0.2-0.5-0.3c0-0.5,0.9-1.4,1.1-1.7c0.1-0.1,0.2-0.2,0.3-0.4c1.2-1.5,1.2-2.6,0.9-3.4    c-0.4-1.2-1.3-1.5-1.9-1.6c-0.1,0-0.3-0.1-0.3-0.1c0-0.1,0.2-0.6,0.3-0.8c0.3-0.7,0.6-1.5,0.4-2.5c-0.5-2.1-3.7-2.6-5-2.6    c-1.2-1.3-2.3-3-3.5-4.7c-0.7-1-1.3-1.9-1.9-2.7c-1.6-2.2-3.1-3.2-5-4.5l-0.6-0.5c-0.2-0.1-0.4-0.3-0.6-0.5    c-0.3-0.3-0.8-0.8-1.3-1.1c-0.3-0.2-0.6-0.3-0.9-0.5c-0.5-0.3-1-0.5-1.4-0.9c-0.1-0.1-0.3-0.3-0.4-0.5c-0.3-0.4-0.7-0.9-1.4-1.3    c-0.4-0.2-0.8-0.4-1.2-0.5c-0.2-0.1-0.5-0.1-0.6-0.2c-0.4-0.2-0.8-0.6-1.2-1c-0.7-0.6-1.5-1.3-2.5-1.7c-1.4-0.4-3.2-0.7-4.9-0.7    c-0.8,0-1.5,0.1-2.2,0.2c-0.3,0-0.6,0.1-0.9,0.2c-0.3,0.1-0.6,0.2-0.9,0.2c0,0-0.1,0-0.1,0c-0.2,0-0.5-0.1-0.8-0.2    c-0.4-0.1-0.9-0.3-1.5-0.4c-0.3,0-0.5,0-0.8,0c-1.4,0-2.7,0.3-3.9,0.7c-0.9,0.2-1.7,0.5-2.5,0.5l-0.9,0.1c0,0-6.5,4.3-6.7,4.3    c-1.4,0.2-2.8,1.7-4.2,3.2c-0.6,0.7-1.4,1.6-1.8,1.8c-3.5,2.1-6.4,7.8-8.2,13.5c0.5-0.2-2.5,7.3-3.4,8.5c-1.8,2.1-2,4.1-1.8,6.7    c0.1,1.1,0.4,3.9,0.5,4.1c0.1,0.8,0.2,1.6,0.3,2.5c0.1,1.3,0.1,2.4-0.1,3.3c-0.1,0.3-0.2,0.7-0.4,1c-0.2,0.4-0.4,0.8-0.5,1.3    c-0.7,2.5,0.6,4,1.8,5.3l0.1,0.1c0.1,0.1,0.2,0.2,0.3,0.3c-0.4,0.4-0.8,1.1-0.6,2c0.4,1.5,4,2.8,4.1,2.8c0.3,0.1,0.5,0.1,0.7,0.2    c0.2,0.1,0.3,0.1,0.5,0.2c0.4,0.2,0.8,0.4,1.3,0.5l0.2,0c0.3,0.1,0.7,0.2,1.1,0.2c0.2,0,0.4,0,0.6-0.1c0.6-0.1,1.1-0.6,1.5-1    c-0.1,0,3.7,0.1,3.3,0.2c0.4,0.1,0.8,0.3,1.1,0.4c0.1,1.9,0.1,3.9,0.4,6c0,0.2,0,0.5,0,0.8c0,0.7,0,1.5,0.4,2.3    c1.7,3.2,6.2,5.4,9,5.9c3.3,0.6,4.1,1.4,4.8,2.2c1,1,2,1.9,4.7,2.3l1.4,0.2c1.5,0.2,3,0.4,8.2,0.6C88.2,99.2,88.5,99,88.8,98.7"></path>
		<rect x="58.4" y="99.6" class="st1" width="45.4" height="45.2"></rect>
	</g>
</g>
</svg>
