<?xml version="1.0" encoding="UTF-8" standalone="no"?>
<!-- Created with Inkscape (http://www.inkscape.org/) -->

<svg
   xmlns:dc="http://purl.org/dc/elements/1.1/"
   xmlns:cc="http://creativecommons.org/ns#"
   xmlns:rdf="http://www.w3.org/1999/02/22-rdf-syntax-ns#"
   xmlns:svg="http://www.w3.org/2000/svg"
   xmlns="http://www.w3.org/2000/svg"
   xmlns:sodipodi="http://sodipodi.sourceforge.net/DTD/sodipodi-0.dtd"
   xmlns:inkscape="http://www.inkscape.org/namespaces/inkscape"
   width="1000"
   height="253.01205"
   id="svg7350"
   version="1.1"
   inkscape:version="0.48.5 r10040"
   sodipodi:docname="New document 4">
  <defs
     id="defs7352" />
  <sodipodi:namedview
     id="base"
     pagecolor="#ffffff"
     bordercolor="#666666"
     borderopacity="1.0"
     inkscape:pageopacity="0.0"
     inkscape:pageshadow="2"
     inkscape:zoom="0.56738281"
     inkscape:cx="590.43315"
     inkscape:cy="-17.76901"
     inkscape:document-units="px"
     inkscape:current-layer="layer1"
     showgrid="false"
     fit-margin-top="0"
     fit-margin-left="0"
     fit-margin-right="0"
     fit-margin-bottom="0"
     inkscape:window-width="1016"
     inkscape:window-height="1027"
     inkscape:window-x="897"
     inkscape:window-y="-9"
     inkscape:window-maximized="0" />
  <metadata
     id="metadata7355">
    <rdf:RDF>
      <cc:Work
         rdf:about="">
        <dc:format>image/svg+xml</dc:format>
        <dc:type
           rdf:resource="http://purl.org/dc/dcmitype/StillImage" />
        <dc:title></dc:title>
      </cc:Work>
    </rdf:RDF>
  </metadata>
  <g
     inkscape:label="Layer 1"
     inkscape:groupmode="layer"
     id="layer1"
     transform="translate(-781.77732,246.77444)">
    <path
       inkscape:connector-curvature="0"
       id="path3353"
       style="fill:#000000;fill-opacity:1;fill-rule:nonzero;stroke:none"
       d="m 1357.8014,-112.666 c -0.3614,-15.51807 -14.5783,-14.79518 -39.2771,-17.25301 -34.8193,-3.18073 -73.253,-6.71085 -73.253,-55.00001 0,-46.87952 42.5301,-61.68674 77.3494,-61.68674 50.9638,0 76.6265,19.38554 80.1205,61.56626 l -47.7109,0 c -4.8192,-14.81928 -10.1204,-19.71084 -32.4096,-20.3253 -14.2169,-0.37349 -28.4337,4.24096 -28.4337,19.38554 0.3614,13.04819 14.2168,13.04819 36.1445,15.51807 35.9037,3.87952 75.4217,4.90362 75.4217,57.45784 0,47.566265 -43.6144,63.072289 -84.0964,63.072289 -54.4578,0 -76.506,-22.253012 -80.6024,-64.168679 l 48.3133,0 c 3.494,16.469884 13.7349,23.289161 32.2891,22.951811 19.8796,-0.39759 36.3856,-5.325301 36.1446,-21.518071" />
    <path
       inkscape:connector-curvature="0"
       id="path3355"
       style="fill:#000000;fill-opacity:1;fill-rule:nonzero;stroke:none"
       d="m 824.66889,-222.08769 c 11.80723,-15.14458 34.81927,-24.50603 55.78313,-24.50603 41.56626,0 69.27711,21.14458 69.27711,65.90362 l 0,125.819279 -45.90362,0 0,-118.759039 c 0,-19.40964 -12.53012,-27.84337 -31.44578,-27.84337 -23.37349,0 -40.60241,16.55421 -44.93976,31.02409 l 0,115.578319 -45.66265,0 0,-136.397599 0,-50.68674 42.89157,0 0,19.86747 z" />
    <path
       inkscape:connector-curvature="0"
       id="path3357"
       style="fill:#000000;fill-opacity:1;fill-rule:nonzero;stroke:none"
       d="m 1174.7894,-241.66601 46.0241,0 0,186.795189 -46.0241,0 0,-186.795189 z" />
    <path
       inkscape:connector-curvature="0"
       id="path3359"
       style="fill:#000000;fill-opacity:1;fill-rule:nonzero;stroke:none"
       d="m 1468.7653,-167.65396 75.0602,0 c -0.9638,-25.01205 -12.8916,-37 -35.5422,-37 -22.2891,0 -37.1084,11.28916 -39.518,37 m -0.241,37.73495 c 1.3253,26.42168 17.8313,38.060238 40.8434,38.060238 23.9759,0.349398 32.4096,-9.518068 35.1807,-22.204818 l 47.9518,-0.0366 c -4.6988,37.072291 -25.0602,64.168677 -82.1687,64.168677 -57.1084,0 -90.4819,-34.518072 -90.4819,-98.325297 0,-63.80724 33.3735,-98.34941 88.1928,-98.34941 55.3012,0 85.0602,34.90362 85.0602,98.34941 l 0,18.33735 -124.5783,0 z" />
    <path
       inkscape:connector-curvature="0"
       id="path3361"
       style="fill:#000000;fill-opacity:1;fill-rule:nonzero;stroke:none"
       d="m 1628.8858,6.2376135 52.5301,0 29.0361,-73.7951805 71.3253,-174.108443 -50.3614,0 -30.7229,81.06025 -15.5422,42.6506 -15.5422,-42.6506 -30.7228,-81.06025 -50.3615,0 71.3253,174.108443 -30.9638,73.7951805 z" />
    <path
       inkscape:connector-curvature="0"
       id="path3363"
       style="fill:#ee4328;fill-opacity:1;fill-rule:nonzero;stroke:none"
       d="m 1062.8617,-182.37685 0,0 0,-64.39759 0,0 c -34.8193,0 -65.30125,19.66265 -81.68679,48.90361 l 53.49399,32.36145 c 5.6626,-10.08434 16.1446,-16.86747 28.1928,-16.86747" />
    <path
       inkscape:connector-curvature="0"
       id="path3365"
       style="fill:#f1ea3c;fill-opacity:1;fill-rule:nonzero;stroke:none"
       d="m 1091.0544,-165.42504 53.3735,-32.36145 c -16.3855,-29.27711 -46.747,-48.9518 -81.5662,-48.98795 l 0,64.38554 c 12.0482,0.0366 22.5301,6.85542 28.1927,16.96386" />
    <path
       inkscape:connector-curvature="0"
       id="path3367"
       style="fill:#3d57a6;fill-opacity:1;fill-rule:nonzero;stroke:none"
       d="m 1062.8617,-114.19612 c -12.1687,0 -22.6506,-6.85542 -28.3133,-17.01205 l -53.37349,32.361446 c 16.26506,29.325301 46.74699,49.036144 81.68679,49.036144 l 0,0 0,-64.39759 0,0.0125" />
    <path
       inkscape:connector-curvature="0"
       id="path3369"
       style="fill:#57b847;fill-opacity:1;fill-rule:nonzero;stroke:none"
       d="m 1144.4279,-197.79854 -53.3735,32.36145 c 2.7711,5.04819 4.4579,10.89157 4.4579,17.14458 0,6.20482 -1.6868,12 -4.4579,17.01205 l 53.494,32.349399 c 8.0723,-14.506029 12.6506,-31.373499 12.6506,-49.361449 0,-18.04819 -4.5783,-34.95181 -12.7711,-49.50603" />
    <path
       inkscape:connector-curvature="0"
       id="path3371"
       style="fill:#e74f9b;fill-opacity:1;fill-rule:nonzero;stroke:none"
       d="m 1030.0906,-148.29251 c 0,-6.28916 1.6867,-12.14458 4.5783,-17.21687 l -53.49399,-32.3494 c -8.07229,14.55422 -12.77108,31.49398 -12.77108,49.56627 0,18.0241 4.57831,34.91567 12.77108,49.445786 l 53.37349,-32.361446 c -2.7711,-5.03614 -4.4578,-10.85542 -4.4578,-17.08434" />
    <path
       inkscape:connector-curvature="0"
       id="path3373"
       style="fill:#0fbef0;fill-opacity:1;fill-rule:nonzero;stroke:none"
       d="m 1062.8617,-114.20817 0,64.39759 c 34.9397,-0.0241 65.3012,-19.771084 81.6867,-49.120481 l -53.494,-32.349399 c -5.5421,10.18072 -16.1445,17.04819 -28.1927,17.07229" />
  </g>
</svg>
