<svg xmlns:xlink="http://www.w3.org/1999/xlink" fill="none" xmlns="http://www.w3.org/2000/svg" viewBox="0 0 393 55" alt="The Observer" width="393"  height="55" >
      <path d="M0 22.083C0 10.389 1.018 5.436 1.018 5.436s5.83.01 10.142.01h19.328c4.235 0 10.065-.01 10.065-.01s1.018 4.953 1.018 16.647h-1.115c-5.056-11.011-6.7-13.62-9.225-15.43h-3.57c-.67.903-.967 2.112-.967 9.804v26.02c0 7.692.224 8.748 1.041 9.428l5.27.537s.007.37.007 1.05H8.555c0-.68-.01-1.037-.01-1.037l5.287-.547c.817-.68 1.115-1.736 1.115-9.427V16.457c0-7.692-.298-8.901-1.04-9.805H10.34c-2.528 1.81-4.25 4.42-9.228 15.43H0ZM63.949 53.488c0-.608-.007-.968-.007-.968l2.481-.48c.6-.38.75-.835.75-5.629v-17.19c0-4.182-2.397-7.682-6.074-7.682-1.423 0-3.449.38-4.497.914v23.962c0 4.794.15 5.249.75 5.63l2.548.488v.959H41.906c0-.609-.007-.965-.007-.965l2.404-.48c.6-.38.824-.835.824-5.629V9.523c0-4.488-.301-5.25-.9-5.857l-2.331-.574c0-.456.006-.795.006-.795S49.025.245 55.996.014l.974.152s-.375 7.835-.375 13.311v7.682c3.225-3.194 7.648-5.782 11.248-5.782 6.673 0 10.872 5.476 10.872 13.918v17.116c0 4.794.15 5.25.677 5.63l2.474.486v.958H63.95v.003ZM147.415 55c-12.7 0-24.916-9.523-24.916-27.25 0-17.072 12.862-27.332 24.916-27.332 12.945 0 24.916 9.356 24.916 26.347 0 17.89-12.781 28.235-24.916 28.235Zm0-53.437c-9.061 0-11.324 14.856-11.324 26.02 0 10.505 2.183 26.102 11.324 26.102s11.325-15.268 11.325-26.92c0-11.33-2.184-25.202-11.325-25.202Z" fill="#000"></path>
      <path d="M174.357 9.51c0-4.489-.302-5.328-.901-5.936l-2.173-.608v-.66S178.78.229 185.453 0l.901.153s-.449 7.838-.449 13.695v7.76c2.626-3.347 6.45-6.238 10.649-6.238 6.974 0 12.821 7.076 12.821 17.421 0 13.468-7.35 21.455-17.921 21.455-3.449 0-8.773-.687-12.671-1.597l-3.572 1.274-1.377-.207c.151-1.522.295-7.763.459-13.07l.064-31.137Zm11.545 29.668c0 4.716.074 9.968.375 12.248 1.199.989 3 1.824 4.423 1.824 4.35 0 6.674-6.696 6.674-14.836 0-10.27-2.923-17.041-7.648-17.041-1.349 0-2.923.608-3.824 1.216v16.59ZM237.448 17.36s.596 3.772.596 10.41l-.904-.024c-5.13-10.182-7.645-10.688-7.645-10.688-.596-.15-1.634-.377-2.826-.377-3.345 0-5.648 3.092-5.648 6.183 0 3.32 1.262 4.828 6.69 7.016 7.731 3.091 11.82 5.429 11.82 11.918 0 7.92-7.507 12.444-15.835 12.444-4.979 0-8.549-1.13-12.265-2.64 0 0-.519-4.525-.519-10.558l.807-.028c5.575 10.709 8.632 11.867 8.632 11.867 1.339.303 2.083.378 3.271.378 2.676 0 5.502-3.245 5.502-6.639 0-4.073-2.006-5.28-7.507-7.542-7.434-3.092-10.632-6.034-10.632-11.616 0-7.542 8.402-11.765 15.684-11.765 3.124.004 7.585.683 10.779 1.662ZM296.943 27.845c-.217-.037-5.649-2.011-7.879-2.942-.967.075-2.156.526-2.675.903v20.667c0 4.827.298 5.13 1.115 5.581l4.296.466s.017.363.017.968H271.82c0-.605-.004-.951-.004-.951l2.381-.48c.596-.376.744-.828.744-5.581V23.547c0-2.412-.225-3.244-.817-3.77l-2.529-.68v-.741s7.581-2.123 14.422-2.5l.744-.072-.446 8.97c4.015-6.789 6.838-9.051 9.811-9.051 2.006 0 4.015 1.885 4.015 4.073 0 2.565-1.487 8.358-3.198 8.069ZM389.806 27.845c-.218-.037-5.649-2.011-7.879-2.942-.968.075-2.157.526-2.676.903v20.667c0 4.827.298 5.13 1.115 5.581l4.296.466s.017.363.017.968h-19.997c0-.605-.003-.951-.003-.951l2.381-.48c.596-.376.743-.828.743-5.581V23.547c0-2.412-.224-3.244-.817-3.77l-2.528-.68v-.741s7.581-2.123 14.422-2.5l.743-.072-.445 8.97c4.014-6.789 6.837-9.051 9.811-9.051 2.005 0 4.014 1.885 4.014 4.073-.003 2.565-1.486 8.358-3.197 8.069ZM321.236 16.909c0 .604.007.965.007.965l-2.98.394c-.446.377-.596.903-.596 1.583 0 .829.596 2.565 1.188 4.073l6.439 16.185 5.381-15.203c.519-1.583.67-3.166.67-3.999a3.404 3.404 0 0 0-.968-2.412l-3.84-.605s-.024-.373-.024-.978h12.118v.965l-2.23.394c-1.339 1.057-2.675 2.64-4.236 7.016l-5.575 15.536-4.831 13.803-1.42.041-13.3-30.284c-1.34-3.017-2.378-4.902-3.717-6.109l-1.858-.424v-.934h19.772v-.007ZM96.897 15.675c7.43-.207 14.271 2.47 14.469 9.785.033 1.28-.151 2.721-.496 3.635-.211.459-.502.693-.947.707-6.095.17-12.373-.102-18.688.075 0 0-.034.832-.037 1.433-.007 7.573 3.402 14.952 12.101 14.745 3.419-.082 6.078-.697 8.288-1.59l.308.367c-2.816 5.887-6.372 9.156-13.876 9.366-9.587.269-16.93-7.3-17.214-17.856-.325-11.833 7.396-20.425 16.092-20.666Zm-4.922 13.213 7.186-.085c1.024-.432 1.52-2.443 1.423-6.061-.107-3.92-1.283-6.227-4.109-6.15-2.648.076-5.3 4.7-5.11 11.786.01.377.165.523.61.51Z" fill="#000"></path>
      <path d="M257.177 15.675c7.43-.207 14.271 2.47 14.469 9.785.033 1.28-.151 2.721-.496 3.635-.211.459-.502.693-.947.707-6.095.17-12.373-.102-18.688.075 0 0-.034.832-.037 1.433-.007 7.573 3.402 14.952 12.101 14.745 3.419-.082 6.078-.697 8.288-1.59l.308.367c-2.816 5.887-6.372 9.156-13.876 9.366-9.587.269-16.93-7.3-17.215-17.856-.324-11.833 7.397-20.425 16.093-20.666Zm-4.922 13.213 7.186-.085c1.024-.432 1.52-2.443 1.423-6.061-.107-3.92-1.283-6.227-4.109-6.15-2.648.076-5.3 4.7-5.11 11.786.011.377.165.523.61.51ZM349.37 15.675c7.43-.207 14.271 2.47 14.468 9.785.034 1.28-.15 2.721-.495 3.635-.211.459-.502.693-.948.707-6.094.17-12.372-.102-18.687.075 0 0-.034.832-.037 1.433-.007 7.573 3.402 14.952 12.101 14.745 3.419-.082 6.077-.697 8.287-1.59l.309.367c-2.817 5.887-6.373 9.156-13.876 9.366-9.587.269-16.93-7.3-17.215-17.856-.325-11.833 7.397-20.425 16.093-20.666Zm-4.922 13.213 7.185-.085c1.025-.432 1.521-2.443 1.423-6.061-.107-3.92-1.282-6.227-4.108-6.15-2.649.076-5.301 4.7-5.11 11.786.01.377.164.523.61.51Z" fill="#000"></path>
    </svg>